<svg width="86" height="43" viewBox="0 0 86 43" fill="none" xmlns="http://www.w3.org/2000/svg">
<path d="M13 17L15.9187 25.9828H25.3637L17.7225 31.5344L20.6412 40.5172L13 34.9656L5.35879 40.5172L8.27747 31.5344L0.636266 25.9828H10.0813L13 17Z" fill="#022241"/>
<path d="M43 0L46.8167 11.7467L59.168 11.7467L49.1756 19.0066L52.9923 30.7533L43 23.4934L33.0077 30.7533L36.8244 19.0066L26.832 11.7467L39.1833 11.7467L43 0Z" fill="#022241"/>
<path d="M73 17L75.9187 25.9828H85.3637L77.7225 31.5344L80.6412 40.5172L73 34.9656L65.3588 40.5172L68.2775 31.5344L60.6363 25.9828H70.0813L73 17Z" fill="#022241"/>
</svg>
